<svg width="20" height="20" viewBox="0 0 20 20" fill="none" xmlns="http://www.w3.org/2000/svg">
<path d="M3.33329 16.6667C2.87496 16.6667 2.4826 16.5035 2.15621 16.1771C1.82982 15.8507 1.66663 15.4583 1.66663 15V5.00001C1.66663 4.54168 1.82982 4.14932 2.15621 3.82293C2.4826 3.49654 2.87496 3.33334 3.33329 3.33334H8.33329L9.99996 5.00001H16.6666C17.125 5.00001 17.5173 5.1632 17.8437 5.48959C18.1701 5.81598 18.3333 6.20834 18.3333 6.66668V15C18.3333 15.4583 18.1701 15.8507 17.8437 16.1771C17.5173 16.5035 17.125 16.6667 16.6666 16.6667H3.33329ZM3.33329 15H16.6666V6.66668H9.31246L7.64579 5.00001H3.33329V15Z" fill="#444444"/>
</svg>
